<mxfile host="app.diagrams.net" agent="Mozilla/5.0 (Macintosh; Intel Mac OS X 10_15_7) AppleWebKit/537.36 (KHTML, like Gecko) Chrome/132.0.0.0 Safari/537.36" version="26.0.10">
  <diagram name="PÃ¡gina-1" id="4iJtwgFDXmMVkX8wfA-N">
    <mxGraphModel dx="1004" dy="637" grid="1" gridSize="10" guides="1" tooltips="1" connect="1" arrows="1" fold="1" page="1" pageScale="1" pageWidth="850" pageHeight="1100" math="0" shadow="0">
      <root>
        <mxCell id="0" />
        <mxCell id="1" parent="0" />
        <mxCell id="DpxZR61gdC3cguacbjM4-3" value="" style="edgeStyle=orthogonalEdgeStyle;rounded=0;orthogonalLoop=1;jettySize=auto;html=1;" edge="1" parent="1" source="DpxZR61gdC3cguacbjM4-1" target="DpxZR61gdC3cguacbjM4-2">
          <mxGeometry relative="1" as="geometry" />
        </mxCell>
        <mxCell id="DpxZR61gdC3cguacbjM4-1" value="start" style="ellipse;whiteSpace=wrap;html=1;" vertex="1" parent="1">
          <mxGeometry x="365" y="80" width="120" height="80" as="geometry" />
        </mxCell>
        <mxCell id="DpxZR61gdC3cguacbjM4-7" value="" style="edgeStyle=orthogonalEdgeStyle;rounded=0;orthogonalLoop=1;jettySize=auto;html=1;" edge="1" parent="1" source="DpxZR61gdC3cguacbjM4-2" target="DpxZR61gdC3cguacbjM4-6">
          <mxGeometry relative="1" as="geometry" />
        </mxCell>
        <mxCell id="DpxZR61gdC3cguacbjM4-2" value="Input the name and bid of user" style="rounded=1;whiteSpace=wrap;html=1;" vertex="1" parent="1">
          <mxGeometry x="365" y="250" width="120" height="60" as="geometry" />
        </mxCell>
        <mxCell id="DpxZR61gdC3cguacbjM4-11" value="" style="edgeStyle=orthogonalEdgeStyle;rounded=0;orthogonalLoop=1;jettySize=auto;html=1;" edge="1" parent="1" source="DpxZR61gdC3cguacbjM4-6" target="DpxZR61gdC3cguacbjM4-10">
          <mxGeometry relative="1" as="geometry" />
        </mxCell>
        <mxCell id="DpxZR61gdC3cguacbjM4-13" value="" style="edgeStyle=orthogonalEdgeStyle;rounded=0;orthogonalLoop=1;jettySize=auto;html=1;" edge="1" parent="1" source="DpxZR61gdC3cguacbjM4-6" target="DpxZR61gdC3cguacbjM4-12">
          <mxGeometry relative="1" as="geometry" />
        </mxCell>
        <mxCell id="DpxZR61gdC3cguacbjM4-6" value="ask the user if there are&amp;nbsp;&lt;div&gt;any other bidders?&lt;/div&gt;" style="rhombus;whiteSpace=wrap;html=1;rounded=1;" vertex="1" parent="1">
          <mxGeometry x="320" y="380" width="210" height="100" as="geometry" />
        </mxCell>
        <mxCell id="DpxZR61gdC3cguacbjM4-23" value="" style="edgeStyle=orthogonalEdgeStyle;rounded=0;orthogonalLoop=1;jettySize=auto;html=1;" edge="1" parent="1" source="DpxZR61gdC3cguacbjM4-10" target="DpxZR61gdC3cguacbjM4-22">
          <mxGeometry relative="1" as="geometry" />
        </mxCell>
        <mxCell id="DpxZR61gdC3cguacbjM4-10" value="check the person with the highest bid and print them" style="whiteSpace=wrap;html=1;rounded=1;" vertex="1" parent="1">
          <mxGeometry x="660" y="600" width="120" height="60" as="geometry" />
        </mxCell>
        <mxCell id="DpxZR61gdC3cguacbjM4-17" value="" style="edgeStyle=orthogonalEdgeStyle;rounded=0;orthogonalLoop=1;jettySize=auto;html=1;" edge="1" parent="1" source="DpxZR61gdC3cguacbjM4-12" target="DpxZR61gdC3cguacbjM4-16">
          <mxGeometry relative="1" as="geometry" />
        </mxCell>
        <mxCell id="DpxZR61gdC3cguacbjM4-12" value="clear the screen" style="whiteSpace=wrap;html=1;rounded=1;" vertex="1" parent="1">
          <mxGeometry x="50" y="600" width="120" height="60" as="geometry" />
        </mxCell>
        <mxCell id="DpxZR61gdC3cguacbjM4-14" value="YES" style="text;html=1;align=center;verticalAlign=middle;resizable=0;points=[];autosize=1;strokeColor=none;fillColor=none;" vertex="1" parent="1">
          <mxGeometry x="225" y="388" width="50" height="30" as="geometry" />
        </mxCell>
        <mxCell id="DpxZR61gdC3cguacbjM4-15" value="NO" style="text;html=1;align=center;verticalAlign=middle;resizable=0;points=[];autosize=1;strokeColor=none;fillColor=none;" vertex="1" parent="1">
          <mxGeometry x="610" y="388" width="40" height="30" as="geometry" />
        </mxCell>
        <mxCell id="DpxZR61gdC3cguacbjM4-21" value="" style="edgeStyle=orthogonalEdgeStyle;rounded=0;orthogonalLoop=1;jettySize=auto;html=1;entryX=0.5;entryY=1;entryDx=0;entryDy=0;" edge="1" parent="1" source="DpxZR61gdC3cguacbjM4-16" target="DpxZR61gdC3cguacbjM4-6">
          <mxGeometry relative="1" as="geometry">
            <mxPoint x="270" y="790" as="targetPoint" />
          </mxGeometry>
        </mxCell>
        <mxCell id="DpxZR61gdC3cguacbjM4-16" value="Input the next bidders and their bid" style="whiteSpace=wrap;html=1;rounded=1;" vertex="1" parent="1">
          <mxGeometry x="50" y="760" width="120" height="60" as="geometry" />
        </mxCell>
        <mxCell id="DpxZR61gdC3cguacbjM4-22" value="FINISHED" style="ellipse;whiteSpace=wrap;html=1;rounded=1;" vertex="1" parent="1">
          <mxGeometry x="630" y="730" width="180" height="80" as="geometry" />
        </mxCell>
      </root>
    </mxGraphModel>
  </diagram>
</mxfile>
